<?xml version="1.0" encoding="UTF-8"?>
<svg id="Layer_2" data-name="Layer 2" xmlns="http://www.w3.org/2000/svg" xmlns:xlink="http://www.w3.org/1999/xlink" viewBox="0 0 64.51 45.12">
  <defs>
    <style>
      .cls-1 {
        stroke-dasharray: 2.7 1.7;
      }

      .cls-1, .cls-2, .cls-3, .cls-4, .cls-5, .cls-6, .cls-7, .cls-8, .cls-9, .cls-10, .cls-11, .cls-12, .cls-13 {
        fill: none;
      }

      .cls-1, .cls-2, .cls-3, .cls-4, .cls-5, .cls-7, .cls-8, .cls-9, .cls-10, .cls-11, .cls-12, .cls-13 {
        stroke: #231f20;
      }

      .cls-14 {
        fill: #231f20;
      }

      .cls-2 {
        stroke-dasharray: 2.84 1.84;
      }

      .cls-3 {
        stroke-dasharray: 3.06 2.06;
      }

      .cls-4 {
        stroke-dasharray: 2.84 1.84;
      }

      .cls-7 {
        stroke-dasharray: 2.95 1.95;
      }

      .cls-15 {
        clip-path: url(#clippath-1);
      }

      .cls-8 {
        stroke-dasharray: 2.83 1.83;
      }

      .cls-9 {
        stroke-dasharray: 3 2;
      }

      .cls-16 {
        clip-path: url(#clippath-2);
      }

      .cls-10 {
        stroke-dasharray: 2.82 1.82;
      }

      .cls-11 {
        stroke-dasharray: 3.01 2.01;
      }

      .cls-17 {
        clip-path: url(#clippath);
      }

      .cls-12 {
        stroke-dasharray: 3.44 2.44;
      }

      .cls-13 {
        stroke-dasharray: 2.58 1.58;
      }
    </style>
    <clipPath id="clippath">
      <rect class="cls-6" width="64.51" height="45.12"/>
    </clipPath>
    <clipPath id="clippath-1">
      <rect class="cls-6" width="64.51" height="45.12"/>
    </clipPath>
    <clipPath id="clippath-2">
      <rect class="cls-6" width="64.51" height="45.12"/>
    </clipPath>
  </defs>
  <g id="Layer_1-2" data-name="Layer 1">
    <line class="cls-2" x1="2" y1="32.93" x2="2" y2="2"/>
    <g class="cls-17">
      <path class="cls-14" d="M2,4c1.11,0,2-.89,2-2S3.11,0,2,0,0,.9,0,2s.89,2,2,2"/>
      <line class="cls-7" x1="27.52" y1="32.93" x2="27.33" y2=".55"/>
      <line class="cls-9" x1="2.66" y1=".88" x2="14.58" y2="31.63"/>
      <line class="cls-3" x1="27.48" y1=".48" x2="14.67" y2="31.76"/>
    </g>
    <line class="cls-8" x1="45.51" y1="32.93" x2="45.51" y2="16.1"/>
    <g class="cls-15">
      <path class="cls-13" d="M42.14,19.47c-.96-.64-1.92-.94-3.17-.94"/>
      <path class="cls-4" d="M34,20.09c-1.01.93-1.53,2.16-1.8,3.24"/>
      <path class="cls-11" d="M32.7,29.04c.51,1.13,1.34,2.26,2.67,2.88"/>
      <path class="cls-1" d="M40.8,31.9c1.28-.48,2.27-1.2,2.99-1.88"/>
      <path class="cls-5" d="M44.39,29.42c.44-.48.73-.86.88-1.02M36.31,32.26c.45.11.95.17,1.49.17.47,0,.92-.04,1.35-.1M32.02,24.23c-.1.65-.11,1.17-.11,1.41s.04.79.18,1.49M38.18,18.56c-.4.03-.82.09-1.28.16-.5.08-.95.22-1.36.39M44.28,21.37c-.32-.33-.62-.64-.91-.91"/>
      <path class="cls-14" d="M44.28,23.37c1.1,0,2-.89,2-2s-.9-2-2-2-2,.9-2,2,.89,2,2,2"/>
    </g>
    <line class="cls-12" x1="52.37" y1="17.86" x2="57.15" y2="32.31"/>
    <g class="cls-16">
      <path class="cls-14" d="M52.37,19.86c1.1,0,2-.9,2-2s-.9-2-2-2-2,.9-2,2,.89,2,2,2"/>
      <line class="cls-10" x1="64.05" y1="16.38" x2="52.83" y2="44.94"/>
    </g>
  </g>
</svg>